<mxfile>
  <diagram>
    <mxGraphModel dx="4000" dy="4000" grid="1" gridSize="10" guides="1" tooltips="1" connect="1" arrows="1" fold="1" pageScale="1" pageWidth="4000" pageHeight="4000" math="0" shadow="0">
      <root>
        <mxCell id="0"/>
        <mxCell id="1" parent="0"/>
        <object label="Webex EQ CODEC, CS-CODEC-EQ-NR++" type="matrix" id="6677314702755732751">
          <mxCell id="2254645080639164767" value="Webex EQ CODEC, CS-CODEC-EQ-NR++" style="rounded=0;whiteSpace=wrap;html=1;" parent="1" connectable="" edge="" vertex="1" source="" target="">
            <mxGeometry x="1900" y="3400" width="200" height="1400" relative="" as="geometry"/>
          </mxCell>
        </object>
        <object label="Webex EQ CODEC, CS-CODEC-EQ-NR++" type="DTP" id="3918933037328073339">
          <mxCell id="5754466516227884603" value="Webex EQ CODEC, CS-CODEC-EQ-NR++" style="rounded=0;whiteSpace=wrap;html=1;" parent="1" connectable="" edge="" vertex="1" source="" target="">
            <mxGeometry x="1500" y="3400" width="160" height="90" relative="" as="geometry"/>
          </mxCell>
        </object>
        <object label="Webex EQ CODEC, CS-CODEC-EQ-NR++" type="DTP" id="7915704428871477772">
          <mxCell id="2795182768291311472" value="Webex EQ CODEC, CS-CODEC-EQ-NR++" style="rounded=0;whiteSpace=wrap;html=1;" parent="1" connectable="" edge="" vertex="1" source="" target="">
            <mxGeometry x="1500" y="3540" width="160" height="90" relative="" as="geometry"/>
          </mxCell>
        </object>
        <object label="DA HD 4K Plus, 60-1607-01" type="DTP" id="650988668367558894">
          <mxCell id="875227698596004709" value="DA HD 4K Plus, 60-1607-01" style="rounded=0;whiteSpace=wrap;html=1;" parent="1" connectable="" edge="" vertex="1" source="" target="">
            <mxGeometry x="1500" y="3680" width="160" height="90" relative="" as="geometry"/>
          </mxCell>
        </object>
        <object label="232-ATSC 4K HDTV, 5114-001" type="DTP" id="1709912795811674670">
          <mxCell id="4527908069312105550" value="232-ATSC 4K HDTV, 5114-001" style="rounded=0;whiteSpace=wrap;html=1;" parent="1" connectable="" edge="" vertex="1" source="" target="">
            <mxGeometry x="1500" y="3960" width="160" height="90" relative="" as="geometry"/>
          </mxCell>
        </object>
        <object label="" type="DTP" id="8353667625639515109">
          <mxCell id="5662855400507857821" value="" style="rounded=0;whiteSpace=wrap;html=1;" parent="1" connectable="" edge="" vertex="1" source="" target="">
            <mxGeometry x="1500" y="4520" width="160" height="90" relative="" as="geometry"/>
          </mxCell>
        </object>
        <object label="" type="DTP" id="2167164108607863331">
          <mxCell id="3529805319707299454" value="" style="rounded=0;whiteSpace=wrap;html=1;" parent="1" connectable="" edge="" vertex="1" source="" target="">
            <mxGeometry x="1500" y="4800" width="160" height="90" relative="" as="geometry"/>
          </mxCell>
        </object>
        <object label="DTP 4K 230 Tx, 60-1271-12" type="DTP" id="5296765544056426348">
          <mxCell id="1593673175557624068" value="DTP 4K 230 Tx, 60-1271-12" style="rounded=0;whiteSpace=wrap;html=1;" parent="1" connectable="" edge="" vertex="1" source="" target="">
            <mxGeometry x="1500" y="4940" width="160" height="90" relative="" as="geometry"/>
          </mxCell>
        </object>
        <object label="DTP 4K 230 Tx, 60-1271-12" type="DTP" id="3200257352665479287">
          <mxCell id="8891481391148289208" value="DTP 4K 230 Tx, 60-1271-12" style="rounded=0;whiteSpace=wrap;html=1;" parent="1" connectable="" edge="" vertex="1" source="" target="">
            <mxGeometry x="1500" y="5080" width="160" height="90" relative="" as="geometry"/>
          </mxCell>
        </object>
        <object label="DTP 4K 230 Tx, 60-1271-12" type="DTP" id="8908612754793915693">
          <mxCell id="2206480813959518127" value="DTP 4K 230 Tx, 60-1271-12" style="rounded=0;whiteSpace=wrap;html=1;" parent="1" connectable="" edge="" vertex="1" source="" target="">
            <mxGeometry x="1500" y="5220" width="160" height="90" relative="" as="geometry"/>
          </mxCell>
        </object>
        <object label="DTP 4K 230 Tx, 60-1271-12" type="DTP" id="2734748438209825938">
          <mxCell id="2393020265779060174" value="DTP 4K 230 Tx, 60-1271-12" style="rounded=0;whiteSpace=wrap;html=1;" parent="1" connectable="" edge="" vertex="1" source="" target="">
            <mxGeometry x="1500" y="5360" width="160" height="90" relative="" as="geometry"/>
          </mxCell>
        </object>
        <object label="TEST" type="DTP" id="791349491171653300">
          <mxCell id="8786192053531183548" value="TEST" style="rounded=0;whiteSpace=wrap;html=1;" parent="1" connectable="" edge="" vertex="1" source="" target="">
            <mxGeometry x="1100" y="3400" width="160" height="90" relative="" as="geometry"/>
          </mxCell>
        </object>
        <object label="" type="DTP" id="6736461006920692423">
          <mxCell id="6536692209707739805" value="" style="rounded=0;whiteSpace=wrap;html=1;" parent="1" connectable="" edge="" vertex="1" source="" target="">
            <mxGeometry x="1100" y="3680" width="160" height="90" relative="" as="geometry"/>
          </mxCell>
        </object>
        <object label="OneLink Bridge" type="DTP" id="4151968375268402550">
          <mxCell id="3633487538579780843" value="OneLink Bridge" style="rounded=0;whiteSpace=wrap;html=1;" parent="1" connectable="" edge="" vertex="1" source="" target="">
            <mxGeometry x="1100" y="3960" width="160" height="90" relative="" as="geometry"/>
          </mxCell>
        </object>
        <object label="" type="DTP" id="5272263647233027627">
          <mxCell id="6808534094759570586" value="" style="rounded=0;whiteSpace=wrap;html=1;" parent="1" connectable="" edge="" vertex="1" source="" target="">
            <mxGeometry x="1100" y="4520" width="160" height="90" relative="" as="geometry"/>
          </mxCell>
        </object>
        <object label="" type="DTP" id="2332347649852067072">
          <mxCell id="2758527169101504025" value="" style="rounded=0;whiteSpace=wrap;html=1;" parent="1" connectable="" edge="" vertex="1" source="" target="">
            <mxGeometry x="1100" y="5080" width="160" height="90" relative="" as="geometry"/>
          </mxCell>
        </object>
        <object label="" type="DTP" id="7728855030833459258">
          <mxCell id="9548442564337956347" value="" style="rounded=0;whiteSpace=wrap;html=1;" parent="1" connectable="" edge="" vertex="1" source="" target="">
            <mxGeometry x="1100" y="5360" width="160" height="90" relative="" as="geometry"/>
          </mxCell>
        </object>
        <object label="BYOD" type="DTP" id="5431995058573272221">
          <mxCell id="6905038370375380984" value="BYOD" style="rounded=0;whiteSpace=wrap;html=1;" parent="1" connectable="" edge="" vertex="1" source="" target="">
            <mxGeometry x="1100" y="5500" width="160" height="90" relative="" as="geometry"/>
          </mxCell>
        </object>
        <object label="BYOD" type="DTP" id="2599726569118472071">
          <mxCell id="4055604375139662929" value="BYOD" style="rounded=0;whiteSpace=wrap;html=1;" parent="1" connectable="" edge="" vertex="1" source="" target="">
            <mxGeometry x="1100" y="5640" width="160" height="90" relative="" as="geometry"/>
          </mxCell>
        </object>
        <object label="BYOD" type="DTP" id="7548651556357038280">
          <mxCell id="2736793580989599252" value="BYOD" style="rounded=0;whiteSpace=wrap;html=1;" parent="1" connectable="" edge="" vertex="1" source="" target="">
            <mxGeometry x="1100" y="5780" width="160" height="90" relative="" as="geometry"/>
          </mxCell>
        </object>
        <object label="BYOD" type="DTP" id="9736704669437946804">
          <mxCell id="1553773051100594811" value="BYOD" style="rounded=0;whiteSpace=wrap;html=1;" parent="1" connectable="" edge="" vertex="1" source="" target="">
            <mxGeometry x="1100" y="5920" width="160" height="90" relative="" as="geometry"/>
          </mxCell>
        </object>
        <object label="" type="DTP" id="3938774400304035801">
          <mxCell id="1679911463828852421" value="" style="rounded=0;whiteSpace=wrap;html=1;" parent="1" connectable="" edge="" vertex="1" source="" target="">
            <mxGeometry x="300" y="3400" width="160" height="90" relative="" as="geometry"/>
          </mxCell>
        </object>
        <object label="" type="DTP" id="7877640934554214509">
          <mxCell id="4210358592312532239" value="" style="rounded=0;whiteSpace=wrap;html=1;" parent="1" connectable="" edge="" vertex="1" source="" target="">
            <mxGeometry x="300" y="3680" width="160" height="90" relative="" as="geometry"/>
          </mxCell>
        </object>
        <object label="Vaddio Roboshot 12E, 999-99600-100" type="DTP" id="9867323934342665041">
          <mxCell id="8156848666980669917" value="Vaddio Roboshot 12E, 999-99600-100" style="rounded=0;whiteSpace=wrap;html=1;" parent="1" connectable="" edge="" vertex="1" source="" target="">
            <mxGeometry x="300" y="3960" width="160" height="90" relative="" as="geometry"/>
          </mxCell>
        </object>
        <object label="" type="DTP" id="5553121259247764663">
          <mxCell id="7821572740975162948" value="" style="rounded=0;whiteSpace=wrap;html=1;" parent="1" connectable="" edge="" vertex="1" source="" target="">
            <mxGeometry x="300" y="4520" width="160" height="90" relative="" as="geometry"/>
          </mxCell>
        </object>
        <object label="" type="DTP" id="5887094441611278587">
          <mxCell id="2324471749168471526" value="" style="rounded=0;whiteSpace=wrap;html=1;" parent="1" connectable="" edge="" vertex="1" source="" target="">
            <mxGeometry x="300" y="5080" width="160" height="90" relative="" as="geometry"/>
          </mxCell>
        </object>
        <object label="" type="DTP" id="5333494357592531194">
          <mxCell id="8769527193020978815" value="" style="rounded=0;whiteSpace=wrap;html=1;" parent="1" connectable="" edge="" vertex="1" source="" target="">
            <mxGeometry x="300" y="5640" width="160" height="90" relative="" as="geometry"/>
          </mxCell>
        </object>
        <object label="" type="DTP" id="4285772330274649539">
          <mxCell id="3670067907601997930" value="" style="rounded=0;whiteSpace=wrap;html=1;" parent="1" connectable="" edge="" vertex="1" source="" target="">
            <mxGeometry x="300" y="6200" width="160" height="90" relative="" as="geometry"/>
          </mxCell>
        </object>
        <object label="" type="DTP" id="8154723772763536977">
          <mxCell id="8170539088530373065" value="" style="rounded=0;whiteSpace=wrap;html=1;" parent="1" connectable="" edge="" vertex="1" source="" target="">
            <mxGeometry x="300" y="6760" width="160" height="90" relative="" as="geometry"/>
          </mxCell>
        </object>
        <object label="" type="DTP" id="9215298858367378163">
          <mxCell id="8755144204208978400" value="" style="rounded=0;whiteSpace=wrap;html=1;" parent="1" connectable="" edge="" vertex="1" source="" target="">
            <mxGeometry x="300" y="7320" width="160" height="90" relative="" as="geometry"/>
          </mxCell>
        </object>
        <object label="" type="DTP" id="9670414419374771925">
          <mxCell id="7711633650036763038" value="" style="rounded=0;whiteSpace=wrap;html=1;" parent="1" connectable="" edge="" vertex="1" source="" target="">
            <mxGeometry x="300" y="7880" width="160" height="90" relative="" as="geometry"/>
          </mxCell>
        </object>
        <object label="Webex EQ CODEC, CS-CODEC-EQ-NR++" type="DTP" id="1602457531584526163">
          <mxCell id="3063505288128760067" value="Webex EQ CODEC, CS-CODEC-EQ-NR++" style="rounded=0;whiteSpace=wrap;html=1;" parent="1" connectable="" edge="" vertex="1" source="" target="">
            <mxGeometry x="2300" y="3400" width="160" height="90" relative="" as="geometry"/>
          </mxCell>
        </object>
        <object label="Webex EQ CODEC, CS-CODEC-EQ-NR++" type="DTP" id="4919730645279792703">
          <mxCell id="6176897524975550539" value="Webex EQ CODEC, CS-CODEC-EQ-NR++" style="rounded=0;whiteSpace=wrap;html=1;" parent="1" connectable="" edge="" vertex="1" source="" target="">
            <mxGeometry x="2300" y="3540" width="160" height="90" relative="" as="geometry"/>
          </mxCell>
        </object>
        <object label="DA HD 4K Plus, 60-1607-01" type="DTP" id="4422121332134005090">
          <mxCell id="5056466965684519613" value="DA HD 4K Plus, 60-1607-01" style="rounded=0;whiteSpace=wrap;html=1;" parent="1" connectable="" edge="" vertex="1" source="" target="">
            <mxGeometry x="2300" y="3680" width="160" height="90" relative="" as="geometry"/>
          </mxCell>
        </object>
        <object label="232-ATSC 4K HDTV, 5114-001" type="DTP" id="7505509807525673264">
          <mxCell id="6892338041005381164" value="232-ATSC 4K HDTV, 5114-001" style="rounded=0;whiteSpace=wrap;html=1;" parent="1" connectable="" edge="" vertex="1" source="" target="">
            <mxGeometry x="2300" y="3820" width="160" height="90" relative="" as="geometry"/>
          </mxCell>
        </object>
        <object label="Test" type="DTP" id="4443121169224514012">
          <mxCell id="9836539755451906187" value="Test" style="rounded=0;whiteSpace=wrap;html=1;" parent="1" connectable="" edge="" vertex="1" source="" target="">
            <mxGeometry x="2300" y="4100" width="160" height="90" relative="" as="geometry"/>
          </mxCell>
        </object>
        <object label="" type="DTP" id="3972654260673962137">
          <mxCell id="9089025027546959600" value="" style="rounded=0;whiteSpace=wrap;html=1;" parent="1" connectable="" edge="" vertex="1" source="" target="">
            <mxGeometry x="2300" y="4380" width="160" height="90" relative="" as="geometry"/>
          </mxCell>
        </object>
        <object label="DTP 4K 230 Tx, 60-1271-12" type="DTP" id="2196078978912921339">
          <mxCell id="3053086902502239183" value="DTP 4K 230 Tx, 60-1271-12" style="rounded=0;whiteSpace=wrap;html=1;" parent="1" connectable="" edge="" vertex="1" source="" target="">
            <mxGeometry x="2300" y="4520" width="160" height="90" relative="" as="geometry"/>
          </mxCell>
        </object>
        <object label="DTP 4K 230 Tx, 60-1271-12" type="DTP" id="7800124498271795855">
          <mxCell id="9080362881695740270" value="DTP 4K 230 Tx, 60-1271-12" style="rounded=0;whiteSpace=wrap;html=1;" parent="1" connectable="" edge="" vertex="1" source="" target="">
            <mxGeometry x="2300" y="4660" width="160" height="90" relative="" as="geometry"/>
          </mxCell>
        </object>
        <object label="DTP 4K 230 Tx, 60-1271-12" type="DTP" id="4046774508496409106">
          <mxCell id="5502424319132116630" value="DTP 4K 230 Tx, 60-1271-12" style="rounded=0;whiteSpace=wrap;html=1;" parent="1" connectable="" edge="" vertex="1" source="" target="">
            <mxGeometry x="2300" y="4800" width="160" height="90" relative="" as="geometry"/>
          </mxCell>
        </object>
        <object label="DTP 4K 230 Tx, 60-1271-12" type="DTP" id="6192640155385200648">
          <mxCell id="2063010285958573809" value="DTP 4K 230 Tx, 60-1271-12" style="rounded=0;whiteSpace=wrap;html=1;" parent="1" connectable="" edge="" vertex="1" source="" target="">
            <mxGeometry x="2300" y="4940" width="160" height="90" relative="" as="geometry"/>
          </mxCell>
        </object>
        <object label="" type="DTP" id="4795895568166053843">
          <mxCell id="6540673907697657464" value="" style="rounded=0;whiteSpace=wrap;html=1;" parent="1" connectable="" edge="" vertex="1" source="" target="">
            <mxGeometry x="3100" y="3400" width="160" height="90" relative="" as="geometry"/>
          </mxCell>
        </object>
        <object label="" type="DTP" id="2566087080651040826">
          <mxCell id="8315470910628224570" value="" style="rounded=0;whiteSpace=wrap;html=1;" parent="1" connectable="" edge="" vertex="1" source="" target="">
            <mxGeometry x="3100" y="3960" width="160" height="90" relative="" as="geometry"/>
          </mxCell>
        </object>
        <object label="" type="DTP" id="7244014537537832342">
          <mxCell id="8644407246192123334" value="" style="rounded=0;whiteSpace=wrap;html=1;" parent="1" connectable="" edge="" vertex="1" source="" target="">
            <mxGeometry x="3100" y="4520" width="160" height="90" relative="" as="geometry"/>
          </mxCell>
        </object>
        <object label="" type="DTP" id="5344997489801275049">
          <mxCell id="2752583999342932534" value="" style="rounded=0;whiteSpace=wrap;html=1;" parent="1" connectable="" edge="" vertex="1" source="" target="">
            <mxGeometry x="3100" y="5080" width="160" height="90" relative="" as="geometry"/>
          </mxCell>
        </object>
        <object label="" type="DTP" id="511645785350428397">
          <mxCell id="8053235821157120963" value="" style="rounded=0;whiteSpace=wrap;html=1;" parent="1" connectable="" edge="" vertex="1" source="" target="">
            <mxGeometry x="3100" y="5640" width="160" height="90" relative="" as="geometry"/>
          </mxCell>
        </object>
        <object label="" type="DTP" id="8108874353505431041">
          <mxCell id="8774617091109203444" value="" style="rounded=0;whiteSpace=wrap;html=1;" parent="1" connectable="" edge="" vertex="1" source="" target="">
            <mxGeometry x="3100" y="5920" width="160" height="90" relative="" as="geometry"/>
          </mxCell>
        </object>
        <object label="75 UHD Samsung" type="DTP" id="2741931320866991350">
          <mxCell id="3164520666911981077" value="75 UHD Samsung" style="rounded=0;whiteSpace=wrap;html=1;" parent="1" connectable="" edge="" vertex="1" source="" target="">
            <mxGeometry x="3100" y="6060" width="160" height="90" relative="" as="geometry"/>
          </mxCell>
        </object>
        <object label="75 UHD Samsung" type="DTP" id="2311971086106618614">
          <mxCell id="2728431327268017587" value="75 UHD Samsung" style="rounded=0;whiteSpace=wrap;html=1;" parent="1" connectable="" edge="" vertex="1" source="" target="">
            <mxGeometry x="3100" y="6200" width="160" height="90" relative="" as="geometry"/>
          </mxCell>
        </object>
        <object label="75 UHD Samsung" type="DTP" id="2497832189321157779">
          <mxCell id="4188320026333004786" value="75 UHD Samsung" style="rounded=0;whiteSpace=wrap;html=1;" parent="1" connectable="" edge="" vertex="1" source="" target="">
            <mxGeometry x="3100" y="6340" width="160" height="90" relative="" as="geometry"/>
          </mxCell>
        </object>
        <object label="75 UHD Samsung" type="DTP" id="3660120563643656599">
          <mxCell id="7140955686303117358" value="75 UHD Samsung" style="rounded=0;whiteSpace=wrap;html=1;" parent="1" connectable="" edge="" vertex="1" source="" target="">
            <mxGeometry x="3100" y="6620" width="160" height="90" relative="" as="geometry"/>
          </mxCell>
        </object>
        <object label="" type="DTP" id="7105755445831934975">
          <mxCell id="9357221016404897954" value="" style="rounded=0;whiteSpace=wrap;html=1;" parent="1" connectable="" edge="" vertex="1" source="" target="">
            <mxGeometry x="3900" y="3400" width="160" height="90" relative="" as="geometry"/>
          </mxCell>
        </object>
        <object label="" type="DTP" id="143242131398477849">
          <mxCell id="4906161431964932575" value="" style="rounded=0;whiteSpace=wrap;html=1;" parent="1" connectable="" edge="" vertex="1" source="" target="">
            <mxGeometry x="3900" y="3960" width="160" height="90" relative="" as="geometry"/>
          </mxCell>
        </object>
        <object label="" type="DTP" id="5926290193488873026">
          <mxCell id="7491057887741876565" value="" style="rounded=0;whiteSpace=wrap;html=1;" parent="1" connectable="" edge="" vertex="1" source="" target="">
            <mxGeometry x="3900" y="4520" width="160" height="90" relative="" as="geometry"/>
          </mxCell>
        </object>
        <object label="" type="DTP" id="5451654662403174259">
          <mxCell id="4820649538664330663" value="" style="rounded=0;whiteSpace=wrap;html=1;" parent="1" connectable="" edge="" vertex="1" source="" target="">
            <mxGeometry x="3900" y="5080" width="160" height="90" relative="" as="geometry"/>
          </mxCell>
        </object>
        <object label="" type="DTP" id="8477743599575786726">
          <mxCell id="5249254490896056703" value="" style="rounded=0;whiteSpace=wrap;html=1;" parent="1" connectable="" edge="" vertex="1" source="" target="">
            <mxGeometry x="3900" y="5640" width="160" height="90" relative="" as="geometry"/>
          </mxCell>
        </object>
        <object label="" type="DTP" id="3540299866095095477">
          <mxCell id="9540360874182474075" value="" style="rounded=0;whiteSpace=wrap;html=1;" parent="1" connectable="" edge="" vertex="1" source="" target="">
            <mxGeometry x="3900" y="6200" width="160" height="90" relative="" as="geometry"/>
          </mxCell>
        </object>
        <object label="" type="DTP" id="139420685798652939">
          <mxCell id="5005432336900168415" value="" style="rounded=0;whiteSpace=wrap;html=1;" parent="1" connectable="" edge="" vertex="1" source="" target="">
            <mxGeometry x="3900" y="6760" width="160" height="90" relative="" as="geometry"/>
          </mxCell>
        </object>
        <object label="" type="DTP" id="618144746377617358">
          <mxCell id="2871289126210667160" value="" style="rounded=0;whiteSpace=wrap;html=1;" parent="1" connectable="" edge="" vertex="1" source="" target="">
            <mxGeometry x="3900" y="7320" width="160" height="90" relative="" as="geometry"/>
          </mxCell>
        </object>
        <object label="" type="DTP" id="5813964094526787770">
          <mxCell id="3705365483984831624" value="" style="rounded=0;whiteSpace=wrap;html=1;" parent="1" connectable="" edge="" vertex="1" source="" target="">
            <mxGeometry x="3900" y="7880" width="160" height="90" relative="" as="geometry"/>
          </mxCell>
        </object>
        <object label="" type="DTP" id="1238154173808488415">
          <mxCell id="8869178360217300906" value="" style="rounded=0;whiteSpace=wrap;html=1;" parent="1" connectable="" edge="" vertex="1" source="" target="">
            <mxGeometry x="3900" y="8440" width="160" height="90" relative="" as="geometry"/>
          </mxCell>
        </object>
      </root>
    </mxGraphModel>
  </diagram>
</mxfile>
